<?xml version='1.0' encoding='utf-8'?>
<svg xmlns="http://www.w3.org/2000/svg" width="100%" height="100%" version="1.1" style="shape-rendering:geometricPrecision; text-rendering:geometricPrecision; image-rendering:optimizeQuality; fill-rule:evenodd; clip-rule:evenodd" viewBox="0 0 9144 9144"> <defs> <style type="text/css">  .fil0 {fill:white} .fil1 {fill:#AAB2BD;fill-rule:nonzero}  </style> </defs> <g id="Camada_x0020_1"> <metadata id="CorelCorpID_0Corel-Layer"/> <polygon class="fil0" points="0,0 9144,0 9144,9144 0,9144 "/> <path class="fil1" d="M5380 2450c-204,55 -649,242 -735,851 225,-48 716,-225 735,-851z"/> <path class="fil1" d="M5827 5320c-126,-171 -200,-382 -200,-611 0,-203 58,-392 160,-552 85,-134 201,-248 338,-332 -58,-72 -163,-178 -319,-252 -253,-119 -642,-153 -1191,178l0 0c-30,18 -69,18 -100,-3 -2,-1 -617,-424 -1054,-134 -3,2 -7,4 -11,6 -2,2 -933,465 -465,1921 25,57 351,804 712,1066l0 0c3,2 7,5 10,8 1,1 200,200 492,-3l0 0c5,-3 10,-6 16,-8 1,-1 501,-225 846,9 2,2 4,3 7,5 1,0 317,216 524,0 2,-2 4,-5 7,-7 1,-1 426,-360 667,-945 -176,-75 -328,-195 -439,-346z"/> <path class="fil1" d="M5813 4709c0,188 61,361 164,501 106,145 258,255 434,312 37,12 61,45 64,81l0 0 1 10c1,16 -1,30 -7,43 -240,647 -707,1060 -747,1094 -315,324 -756,23 -758,23 -2,-2 -5,-4 -8,-7 -237,-160 -597,-22 -657,3 -382,261 -671,25 -716,-15 -414,-305 -769,-1141 -770,-1144 -2,-4 -3,-8 -4,-12 -502,-1561 492,-2109 553,-2141 456,-299 1034,2 1207,106 64,-37 126,-70 187,-98 -122,33 -208,39 -209,39 -51,4 -96,-34 -100,-85 0,-7 0,-14 1,-20 69,-1053 1010,-1154 1013,-1155 51,-6 97,31 103,82 1,4 1,9 1,13 29,590 -269,882 -550,1026 370,-111 658,-60 870,40 301,143 447,388 457,404 25,44 11,101 -34,127 -4,3 -9,5 -13,7 -144,70 -266,179 -351,314 -83,131 -131,286 -131,452z"/> </g> </svg>