<?xml version="1.0" encoding="UTF-8" standalone="no"?>
<svg
   xmlns:dc="http://purl.org/dc/elements/1.1/"
   xmlns:cc="http://creativecommons.org/ns#"
   xmlns:rdf="http://www.w3.org/1999/02/22-rdf-syntax-ns#"
   xmlns:svg="http://www.w3.org/2000/svg"
   xmlns="http://www.w3.org/2000/svg"
   viewBox="0 0 1887.8533 1236.452"
   height="1236.452"
   width="1887.8533"
   xml:space="preserve"
   id="svg2"
   version="1.1"><metadata
     id="metadata8"><rdf:RDF><cc:Work
         rdf:about=""><dc:format>image/svg+xml</dc:format><dc:type
           rdf:resource="http://purl.org/dc/dcmitype/StillImage" /></cc:Work></rdf:RDF></metadata><defs
     id="defs6"><clipPath
       id="clipPath20"
       clipPathUnits="userSpaceOnUse"><path
         id="path18"
         d="M 0,927.339 H 1415.89 V 0 H 0 Z" /></clipPath><clipPath
       id="clipPath100"
       clipPathUnits="userSpaceOnUse"><path
         id="path98"
         d="M 0,927.339 H 1415.89 V 0 H 0 Z" /></clipPath><clipPath
       id="clipPath294"
       clipPathUnits="userSpaceOnUse"><path
         id="path292"
         d="M 0,927.339 H 1415.89 V 0 H 0 Z" /></clipPath><clipPath
       id="clipPath378"
       clipPathUnits="userSpaceOnUse"><path
         id="path376"
         d="m 606.97,711.26 h 43.06 v -23.916 h -43.06 z" /></clipPath><clipPath
       id="clipPath394"
       clipPathUnits="userSpaceOnUse"><path
         id="path392"
         d="m 661.287,730.351 h 27.669 v -21.989 h -27.669 z" /></clipPath><linearGradient
       id="linearGradient424"
       spreadMethod="pad"
       gradientTransform="matrix(40.531323,0,0,-40.531323,570.25659,683.68658)"
       gradientUnits="userSpaceOnUse"
       y2="0"
       x2="1"
       y1="0"
       x1="0"><stop
         id="stop416"
         offset="0"
         style="stop-opacity:1;stop-color:#8c2322" /><stop
         id="stop418"
         offset="0.83571827"
         style="stop-opacity:1;stop-color:#49141b" /><stop
         id="stop420"
         offset="0.943902"
         style="stop-opacity:1;stop-color:#49141b" /><stop
         id="stop422"
         offset="1"
         style="stop-opacity:1;stop-color:#49141b" /></linearGradient><clipPath
       id="clipPath434"
       clipPathUnits="userSpaceOnUse"><path
         id="path432"
         d="M 0,927.339 H 1415.89 V 0 H 0 Z" /></clipPath><linearGradient
       id="linearGradient468"
       spreadMethod="pad"
       gradientTransform="matrix(13.706705,0,0,-13.706705,585.46002,641.77863)"
       gradientUnits="userSpaceOnUse"
       y2="0"
       x2="1"
       y1="0"
       x1="0"><stop
         id="stop460"
         offset="0"
         style="stop-opacity:1;stop-color:#8c2322" /><stop
         id="stop462"
         offset="0.83571827"
         style="stop-opacity:1;stop-color:#49141b" /><stop
         id="stop464"
         offset="0.943902"
         style="stop-opacity:1;stop-color:#49141b" /><stop
         id="stop466"
         offset="1"
         style="stop-opacity:1;stop-color:#49141b" /></linearGradient><clipPath
       id="clipPath478"
       clipPathUnits="userSpaceOnUse"><path
         id="path476"
         d="M 0,927.339 H 1415.89 V 0 H 0 Z" /></clipPath><linearGradient
       id="linearGradient536"
       spreadMethod="pad"
       gradientTransform="matrix(130.38573,0,0,-130.38573,568.69666,730.35138)"
       gradientUnits="userSpaceOnUse"
       y2="0"
       x2="1"
       y1="0"
       x1="0"><stop
         id="stop532"
         offset="0"
         style="stop-opacity:1;stop-color:#8c2322" /><stop
         id="stop534"
         offset="1"
         style="stop-opacity:1;stop-color:#ff151b" /></linearGradient><clipPath
       id="clipPath546"
       clipPathUnits="userSpaceOnUse"><path
         id="path544"
         d="M 0,927.339 H 1415.89 V 0 H 0 Z" /></clipPath><clipPath
       id="clipPath558"
       clipPathUnits="userSpaceOnUse"><path
         id="path556"
         d="m 591.57,743.755 h 87.904 V 695.467 H 591.57 Z" /></clipPath><clipPath
       id="clipPath618"
       clipPathUnits="userSpaceOnUse"><path
         id="path616"
         d="M 0,927.339 H 1415.89 V 0 H 0 Z" /></clipPath></defs><g
     transform="matrix(1.3333333,0,0,-1.3333333,0,1236.452)"
     id="g10"><path
       id="path12"
       style="fill:#ffffff;fill-opacity:1;fill-rule:nonzero;stroke:none"
       d="M 0,0 H 1415.89 V 927.338 H 0 Z" /><g
       id="g14"><g
         clip-path="url(#clipPath20)"
         id="g16"><g
           transform="translate(1255.4082,129.1409)"
           id="g22"><path
             id="path24"
             style="fill:#dee9ff;fill-opacity:1;fill-rule:nonzero;stroke:none"
             d="m 0,0 c 0,0 91.84,177.358 61.227,242.105 -30.614,64.748 -105.755,287.175 -203.162,326.507 -97.406,39.333 -392.407,150.325 -498.163,120.956 -105.755,-29.367 -312.93,-125.02 -337.362,-250.135 -24.432,-125.115 -206.354,-124.786 -150.67,-224.948 55.684,-100.163 30.444,-279.493 30.444,-279.493 H -11.132 Z" /></g><g
           transform="translate(1143.1396,60.8558)"
           id="g26"><path
             id="path28"
             style="fill:#8fb2f8;fill-opacity:1;fill-rule:nonzero;stroke:none"
             d="M 0,0 C 0,0 97.351,185.827 94.478,211.984" /></g><g
           transform="translate(1164.0586,101.638)"
           id="g30"><path
             id="path32"
             style="fill:#8fb2f8;fill-opacity:1;fill-rule:nonzero;stroke:none"
             d="M 0,0 C 0,0 25.226,23.482 36.171,19.569 44.302,16.662 53.893,5.073 49.527,-3.97 c -3.534,-7.323 -15.04,-8.282 -22.201,-8.151 0,0 -44.191,12.786 -55.681,19.703 -6.579,3.961 -11.968,11.953 -10.98,19.911 0.893,7.184 9.171,13.299 16.355,12.795 4.149,-0.29 7.709,-3.197 10.105,-6.596 4.349,-6.168 7.167,-13.73 9.428,-20.874 C -3.068,11.621 0.993,0.925 0,0" /></g><g
           transform="translate(1180.8486,135.6966)"
           id="g34"><path
             id="path36"
             style="fill:#8fb2f8;fill-opacity:1;fill-rule:nonzero;stroke:none"
             d="m 0,0 c 0,0.001 25.226,23.483 36.172,19.57 8.13,-2.907 17.722,-14.496 13.356,-23.539 -3.534,-7.324 -15.04,-8.282 -22.201,-8.151 0,0 -44.192,12.786 -55.681,19.703 -6.579,3.961 -11.968,11.952 -10.98,19.911 0.893,7.184 9.171,13.298 16.355,12.795 4.149,-0.29 7.708,-3.197 10.105,-6.597 4.349,-6.167 7.166,-13.729 9.428,-20.873 C -3.067,11.622 0.994,0.925 0,0" /></g><g
           transform="translate(1196.2607,169.4212)"
           id="g38"><path
             id="path40"
             style="fill:#8fb2f8;fill-opacity:1;fill-rule:nonzero;stroke:none"
             d="M 0,0 C 0,0 21.429,18.302 30.233,14.722 36.774,12.063 44.204,2.26 40.322,-4.976 c -3.144,-5.859 -12.577,-6.239 -18.423,-5.881 0,0 -35.653,11.99 -44.797,18.043 -5.236,3.465 -9.359,10.183 -8.273,16.649 0.98,5.838 7.957,10.543 13.808,9.881 3.379,-0.382 6.185,-2.881 8.024,-5.742 3.337,-5.191 5.374,-11.467 6.972,-17.382 C -2.1,9.601 0.844,0.721 0,0" /></g><g
           transform="translate(1210.6895,200.0315)"
           id="g42"><path
             id="path44"
             style="fill:#8fb2f8;fill-opacity:1;fill-rule:nonzero;stroke:none"
             d="M 0,0 C 0,0 15.328,17.291 22.884,15.382 28.497,13.964 35.642,6.845 33.309,0.529 31.42,-4.585 23.803,-5.963 19.015,-6.335 c 0,0 -30.313,5.697 -38.424,9.576 -4.645,2.221 -8.754,7.209 -8.606,12.583 0.135,4.852 5.267,9.464 10.094,9.589 2.787,0.072 5.35,-1.639 7.167,-3.754 C -7.456,17.822 -5.09,12.956 -3.123,8.334 -2.793,7.56 0.604,0.682 0,0" /></g><g
           transform="translate(1222.7988,230.3343)"
           id="g46"><path
             id="path48"
             style="fill:#8fb2f8;fill-opacity:1;fill-rule:nonzero;stroke:none"
             d="m 0,0 c 0,0 11.546,13.933 17.51,12.636 4.43,-0.964 10.208,-6.35 8.547,-11.353 -1.345,-4.053 -7.271,-5.33 -11.009,-5.746 0,0 -23.874,3.668 -30.324,6.492 -3.693,1.618 -7.04,5.414 -7.064,9.625 -0.021,3.801 3.876,7.544 7.651,7.769 2.179,0.129 4.229,-1.144 5.707,-2.751 2.681,-2.918 4.66,-6.664 6.321,-10.231 C -2.383,5.843 0.455,0.549 0,0" /></g><g
           transform="translate(1232.0635,252.4876)"
           id="g50"><path
             id="path52"
             style="fill:#8fb2f8;fill-opacity:1;fill-rule:nonzero;stroke:none"
             d="m 0,0 c 0,0 9.487,11.448 14.388,10.383 3.639,-0.792 8.386,-5.217 7.022,-9.328 -1.105,-3.33 -5.974,-4.379 -9.046,-4.721 0,0 -19.616,3.014 -24.916,5.334 -3.035,1.329 -5.785,4.448 -5.803,7.908 -0.018,3.123 3.183,6.199 6.285,6.383 1.791,0.106 3.475,-0.939 4.689,-2.26 2.203,-2.397 3.829,-5.476 5.193,-8.406 C -1.958,4.802 0.374,0.451 0,0" /></g><g
           transform="translate(1235.8916,266.3284)"
           id="g54"><path
             id="path56"
             style="fill:#8fb2f8;fill-opacity:1;fill-rule:nonzero;stroke:none"
             d="m 0,0 c 4.989,4.821 10.241,9.444 15.009,14.505 3.683,3.909 4.113,5.783 -0.676,10.878 C 11.101,28.823 4.935,31.172 1.179,28.95 -3.037,26.454 -1.793,19.545 -1.408,14.891 -1.198,12.355 1.391,1.343 0,0" /></g><g
           transform="translate(1146.5811,59.972)"
           id="g58"><path
             id="path60"
             style="fill:none;stroke:#c2d3f9;stroke-width:1;stroke-linecap:butt;stroke-linejoin:miter;stroke-miterlimit:10;stroke-dasharray:none;stroke-opacity:1"
             d="M 0,0 C 0,0 -25.901,208.178 -43.168,228.035" /></g><g
           transform="translate(1140.5303,105.4046)"
           id="g62"><path
             id="path64"
             style="fill:#c0d2f7;fill-opacity:1;fill-rule:nonzero;stroke:none"
             d="m 0,0 c 0,0.001 7.346,33.673 18.57,36.694 8.338,2.244 22.824,-1.813 24.391,-11.731 1.268,-8.032 -7.64,-15.377 -13.6,-19.35 0,0 -43.599,-14.677 -56.982,-15.541 -7.663,-0.494 -16.647,3.002 -20.369,10.105 -3.361,6.412 -0.043,16.154 6.147,19.835 3.574,2.126 8.156,1.765 12.063,0.338 7.088,-2.59 13.714,-7.199 19.642,-11.781 C -9.145,7.802 0.289,1.326 0,0" /></g><g
           transform="translate(1134.918,142.9612)"
           id="g66"><path
             id="path68"
             style="fill:#c0d2f7;fill-opacity:1;fill-rule:nonzero;stroke:none"
             d="m 0,0 c 0,0 7.347,33.672 18.571,36.694 8.338,2.244 22.824,-1.813 24.39,-11.731 1.268,-8.032 -7.64,-15.377 -13.599,-19.35 0,0 -43.6,-14.677 -56.983,-15.541 -7.663,-0.494 -16.646,3.002 -20.369,10.105 -3.361,6.412 -0.042,16.154 6.147,19.835 3.575,2.125 8.156,1.765 12.063,0.338 7.089,-2.591 13.714,-7.199 19.642,-11.781 C -9.144,7.802 0.289,1.326 0,0" /></g><g
           transform="translate(1128.3643,179.4563)"
           id="g70"><path
             id="path72"
             style="fill:#c0d2f7;fill-opacity:1;fill-rule:nonzero;stroke:none"
             d="M 0,0 C 0,0 7.179,27.25 16.454,29.326 23.345,30.868 35.036,27.047 35.969,18.89 36.725,12.283 29.19,6.596 24.183,3.558 c 0,0 -36.131,-10.465 -47.094,-10.703 -6.277,-0.135 -13.494,3.036 -16.286,8.968 -2.522,5.355 0.53,13.198 5.715,15.988 2.995,1.612 6.724,1.157 9.866,-0.146 5.7,-2.364 10.951,-6.36 15.635,-10.311 C -7.196,6.692 0.283,1.073 0,0" /></g><g
           transform="translate(1122.7764,212.8333)"
           id="g74"><path
             id="path76"
             style="fill:#c0d2f7;fill-opacity:1;fill-rule:nonzero;stroke:none"
             d="m 0,0 c 0,0 2.742,22.943 10.039,25.68 5.421,2.033 15.349,0.255 17.03,-6.264 1.363,-5.279 -4.111,-10.752 -7.834,-13.786 0,0 -28.155,-12.593 -37.031,-14.028 -5.082,-0.822 -11.302,0.935 -14.242,5.436 -2.654,4.064 -1.066,10.778 2.829,13.631 2.25,1.648 5.33,1.702 8.029,1 4.897,-1.273 9.615,-3.924 13.865,-6.601 C -6.603,4.619 0.108,0.903 0,0" /></g><g
           transform="translate(1115.459,244.6341)"
           id="g78"><path
             id="path80"
             style="fill:#c0d2f7;fill-opacity:1;fill-rule:nonzero;stroke:none"
             d="m 0,0 c 0,0 1.548,18.029 7.187,20.361 4.19,1.733 12.007,0.6 13.494,-4.458 1.204,-4.096 -2.938,-8.523 -5.773,-10.995 0,0 -21.708,-10.591 -28.618,-11.946 -3.956,-0.775 -8.87,0.437 -11.289,3.884 -2.184,3.111 -1.114,8.408 1.859,10.743 1.718,1.349 4.127,1.471 6.258,0.992 3.866,-0.869 7.627,-2.82 11.025,-4.805 C -5.288,3.443 0.062,0.71 0,0" /></g><g
           transform="translate(1110.4473,268.1175)"
           id="g82"><path
             id="path84"
             style="fill:#c0d2f7;fill-opacity:1;fill-rule:nonzero;stroke:none"
             d="m 0,0 c 0,0.001 1.271,14.814 5.906,16.731 3.443,1.423 9.865,0.493 11.086,-3.664 0.989,-3.365 -2.413,-7.003 -4.742,-9.034 0,0 -17.838,-8.702 -23.515,-9.815 -3.251,-0.637 -7.289,0.359 -9.276,3.191 -1.794,2.556 -0.916,6.908 1.527,8.827 1.411,1.109 3.392,1.209 5.143,0.815 3.176,-0.714 6.267,-2.318 9.058,-3.947 C -4.346,2.83 0.05,0.584 0,0" /></g><g
           transform="translate(1105.1396,284.9857)"
           id="g86"><path
             id="path88"
             style="fill:#c2d3f9;fill-opacity:1;fill-rule:nonzero;stroke:none"
             d="m 0,0 c -0.962,6.872 -1.608,13.838 -2.893,20.672 -0.992,5.278 -2.254,6.728 -9.191,5.856 -4.685,-0.589 -10.212,-4.191 -10.627,-8.535 -0.464,-4.877 5.855,-7.938 9.844,-10.367 C -10.695,6.304 -0.268,1.915 0,0" /></g><g
           transform="translate(93.5269,34.0081)"
           id="g90"><path
             id="path92"
             style="fill:#666666;fill-opacity:1;fill-rule:nonzero;stroke:none"
             d="m 0,0 h 1260.353 c 5.134,0 9.296,4.162 9.296,9.296 v 12.676 c 0,5.133 -4.162,9.296 -9.296,9.296 H 0 c -5.134,0 -9.296,-4.163 -9.296,-9.296 V 9.296 C -9.296,4.162 -5.134,0 0,0" /></g></g></g><g
       id="g94"><g
         clip-path="url(#clipPath100)"
         id="g96"><g
           transform="translate(826.5791,131.431)"
           id="g102"><path
             id="path104"
             style="fill:#040402;fill-opacity:1;fill-rule:nonzero;stroke:none"
             d="m 0,0 c 0,-46.888 38.011,-84.897 84.898,-84.897 46.887,0 84.898,38.009 84.898,84.897 0,46.888 -38.011,84.897 -84.898,84.897 C 38.011,84.897 0,46.888 0,0" /></g><g
           transform="translate(840.2764,131.431)"
           id="g106"><path
             id="path108"
             style="fill:#8d9cab;fill-opacity:1;fill-rule:nonzero;stroke:none"
             d="m 0,0 c 0,-32.821 26.606,-59.428 59.428,-59.428 32.821,0 59.428,26.607 59.428,59.428 0,32.821 -26.607,59.429 -59.428,59.429 C 26.606,59.429 0,32.821 0,0" /></g><g
           transform="translate(908.6689,87.4573)"
           id="g110"><path
             id="path112"
             style="fill:#e0edf9;fill-opacity:1;fill-rule:nonzero;stroke:none"
             d="m 0,0 c 0,0 -26.119,-8.269 -43.959,12.895 0,0 -5.447,12.122 -4.285,17.167 1.161,5.045 16.756,6.45 16.756,6.45 L 0.552,20.451 Z" /></g><g
           transform="translate(924.916,157.1829)"
           id="g114"><path
             id="path116"
             style="fill:#fdffff;fill-opacity:1;fill-rule:nonzero;stroke:none"
             d="m 0,0 c -3.117,-2.893 -6.692,-5.859 -9.35,-9.181 -0.361,-0.359 -0.289,-2.287 -0.348,-2.765 -0.326,-2.584 -0.653,-5.167 -0.979,-7.751 -0.76,-6.021 -1.511,-12.042 -2.257,-18.066 -0.14,-1.136 -0.282,-2.279 -0.6,-3.38 -0.862,-2.976 -2.436,-5.392 -2.75,-8.537 -0.356,-3.552 -0.004,-7.111 0.046,-10.67 0.01,-0.751 -0.041,-9.298 0.039,-9.267 7.517,3.011 19.037,9.213 22.961,16.605 3.692,6.958 5.332,14.898 5.574,22.727 0.107,3.49 0.281,7.538 -0.74,10.896 C 9.519,-12.56 3.639,-6.117 0,0" /></g><g
           transform="translate(857.3457,135.6761)"
           id="g118"><path
             id="path120"
             style="fill:#d3dce9;fill-opacity:1;fill-rule:nonzero;stroke:none"
             d="M 0,0 C -0.079,-0.087 1.217,-1.285 3.073,-2.923 L 9.27,10.204 C 4.021,4.426 0,0.001 0,0" /></g><g
           transform="translate(916.4551,142.7239)"
           id="g122"><path
             id="path124"
             style="fill:#d3dce9;fill-opacity:1;fill-rule:nonzero;stroke:none"
             d="m 0,0 -24.246,26.301 -1.433,3.447 c 0,0 -1.155,-1.271 -3.031,-3.336 8.018,-8.037 20.772,-22.428 26.607,-37.705 4.656,-12.186 -4.884,-19.408 -14.978,-23.522 10.609,-1.33 24.238,-0.176 28.433,10.919 C 18.92,-3.878 0,0 0,0" /></g><g
           transform="translate(880.7168,175.7522)"
           id="g126"><path
             id="path128"
             style="fill:#5b7780;fill-opacity:1;fill-rule:nonzero;stroke:none"
             d="m 0,0 -14.102,-29.872 c 7.083,7.795 16.403,18.053 21.13,23.256 C 2.882,-2.46 0,0 0,0" /></g><g
           transform="translate(914.3525,131.431)"
           id="g130"><path
             id="path132"
             style="fill:#5b7780;fill-opacity:1;fill-rule:nonzero;stroke:none"
             d="M 0,0 C -5.836,15.277 -18.59,29.668 -26.607,37.705 -31.335,32.502 -40.654,22.244 -47.737,14.449 L -57.011,2.557 c 4.226,-3.727 14.462,-10.988 15.143,-11.554 7.167,-5.961 13.755,-12.191 23.249,-13.967 1.153,-0.216 2.381,-0.401 3.64,-0.558 C -4.885,-19.408 4.655,-12.186 0,0" /></g><g
           transform="translate(893.8389,134.9935)"
           id="g134"><path
             id="path136"
             style="fill:#8fa5b8;fill-opacity:1;fill-rule:nonzero;stroke:none"
             d="m 0,0 c 0.387,0.169 0.786,0.312 1.195,0.429 2.535,0.715 5.275,0.284 7.747,-0.623 1.347,-0.493 2.733,-1.21 3.382,-2.49 0.453,-0.891 0.483,-1.938 0.391,-2.934 C 11.89,-14.636 3.646,-18.113 -4.353,-18.49 -14.041,-18.946 -7.921,-7.84 -4.846,-3.929 -3.548,-2.278 -1.912,-0.834 0,0" /></g><g
           transform="translate(448.188,124.5921)"
           id="g138"><path
             id="path140"
             style="fill:#050402;fill-opacity:1;fill-rule:nonzero;stroke:none"
             d="m 0,0 c 0,-46.313 37.544,-83.856 83.856,-83.856 46.313,0 83.857,37.543 83.857,83.856 0,46.312 -37.544,83.856 -83.857,83.856 C 37.544,83.856 0,46.312 0,0" /></g><g
           transform="translate(459.1094,127.4583)"
           id="g142"><path
             id="path144"
             style="fill:#8d9aa6;fill-opacity:1;fill-rule:nonzero;stroke:none"
             d="m 0,0 c 0,-32.418 26.281,-58.699 58.7,-58.699 32.418,0 58.699,26.281 58.699,58.699 0,32.419 -26.281,58.7 -58.699,58.7 C 26.281,58.7 0,32.419 0,0" /></g><g
           transform="translate(555.4722,111.0286)"
           id="g146"><path
             id="path148"
             style="fill:#e4f0f7;fill-opacity:1;fill-rule:nonzero;stroke:none"
             d="m 0,0 c 2.199,5.033 3.426,10.587 3.426,16.43 0,22.693 -18.396,41.09 -41.089,41.09 -22.693,0 -41.09,-18.397 -41.09,-41.09 0,-22.693 18.397,-41.089 41.09,-41.089 4.638,0 9.092,0.779 13.25,2.196 l -3.52,26.008 z" /></g><g
           transform="translate(555.4722,111.0286)"
           id="g150"><path
             id="path152"
             style="fill:#fffffe;fill-opacity:1;fill-rule:nonzero;stroke:none"
             d="m 0,0 -27.933,3.545 3.52,-26.008 C -13.463,-18.733 -4.595,-10.518 0,0" /></g><g
           transform="translate(533.356,285.9974)"
           id="g154"><path
             id="path156"
             style="fill:#a3b2c9;fill-opacity:1;fill-rule:nonzero;stroke:none"
             d="M 0,0 -11.984,10.499 -56.691,10.563 -73.424,5.282 -59.074,0 l 7.848,-4.012 35.432,0.676 10.111,-4.363 z" /></g><g
           transform="translate(493.1304,286.1898)"
           id="g158"><path
             id="path160"
             style="fill:#64808a;fill-opacity:1;fill-rule:nonzero;stroke:none"
             d="M 0,0 H 24.738 L 23.897,11.988 -18.335,10.689 Z" /></g><g
           transform="translate(484.9331,293.7581)"
           id="g162"><path
             id="path164"
             style="fill:#697d88;fill-opacity:1;fill-rule:nonzero;stroke:none"
             d="m 0,0 c -8.269,2.803 -78.484,4.485 -78.484,4.485 h -39.242 c 0,0 -7.487,-9.127 -0.429,-13.454 18.2,0.728 66.71,2.537 72.058,1.402 1.743,-0.371 3.751,-1.434 5.762,-2.787 7.514,0.32 15.027,0.657 22.539,0.983 1.447,0.062 2.949,0.116 4.289,-0.437 5.928,-2.447 15.948,-13.884 15.189,-20.429 -0.872,-7.512 10.321,9.75 10.321,9.75 0,0 -3.734,17.684 -12.003,20.487" /></g><g
           transform="translate(366.7783,284.7894)"
           id="g166"><path
             id="path168"
             style="fill:#a3b2c9;fill-opacity:1;fill-rule:nonzero;stroke:none"
             d="m 0,0 c 0.149,-0.091 0.265,-0.193 0.427,-0.28 6.887,-3.692 15.409,-2.659 22.939,-2.624 18.161,0.085 36.31,0.747 54.454,1.519 C 75.809,-0.032 73.801,1.03 72.058,1.401 66.709,2.537 18.2,0.728 0,0" /></g><g
           transform="translate(561.5796,370.0003)"
           id="g170"><path
             id="path172"
             style="fill:#63110a;fill-opacity:1;fill-rule:nonzero;stroke:none"
             d="M 0,0 -6.542,87.831 H -63.06 v -161.27 h 49.762 l -6.908,-12.053 c 0,0 29.331,6.447 38.963,5.246 9.631,-1.201 66.61,-15.617 66.61,-15.617 l 11.984,48.212 z" /></g><path
           id="path174"
           style="fill:#d0080f;fill-opacity:1;fill-rule:nonzero;stroke:none"
           d="M 352.632,296.561 H 498.52 V 457.832 H 352.632 Z" /><g
           transform="translate(647.5381,278.4769)"
           id="g176"><path
             id="path178"
             style="fill:#6c2419;fill-opacity:1;fill-rule:nonzero;stroke:none"
             d="m 0,0 c 0,0 0.961,9.687 1.835,19.626 0.942,10.705 1.436,21.703 -9.574,21.217 -1.785,-0.079 -88.295,1.067 -92.499,-0.195 -4.204,-1.26 -7.288,-18.639 0.981,-22.564 8.269,-3.924 86.472,-23.29 86.472,-23.29 l 12.194,0.866 z" /></g><g
           transform="translate(642.8818,268.2396)"
           id="g180"><path
             id="path182"
             style="fill:#28030d;fill-opacity:1;fill-rule:nonzero;stroke:none"
             d="m 0,0 c 0,0 -2.229,12.969 -2.242,13.045 0.46,-2.672 -44.543,13.189 -47.049,13.815 -18.567,4.638 -41.884,6.309 -59.902,-1.033 1.149,-9.854 12.152,-17.608 18.639,-25.365 5.752,-6.877 11.504,-13.755 17.256,-20.632 z" /></g><g
           transform="translate(460.7715,262.9495)"
           id="g184"><path
             id="path186"
             style="fill:#a80408;fill-opacity:1;fill-rule:nonzero;stroke:none"
             d="m 0,0 h -11.997 c 0,0 -4.765,0.816 -5.326,-8.153 -0.56,-8.969 0,-56.036 0,-56.036 l 25.011,48.762 -8.527,-2.396 z" /></g><g
           transform="translate(475.104,262.9495)"
           id="g188"><path
             id="path190"
             style="fill:#280f01;fill-opacity:1;fill-rule:nonzero;stroke:none"
             d="m 0,0 h -14.333 l -0.839,-17.823 8.527,2.396 8.206,15.998 z" /></g><g
           transform="translate(555.0376,288.2581)"
           id="g192"><path
             id="path194"
             style="fill:#cd5f87;fill-opacity:1;fill-rule:nonzero;stroke:none"
             d="m 0,0 c 0,0 -69.544,-1.227 -95.332,-42.15 l -20.87,-59.178 c 0,0 27.409,37.457 50.207,39.908 l 17.139,15.983 -28.589,-7.109 z" /></g><g
           transform="translate(726.5518,310.0159)"
           id="g196"><path
             id="path198"
             style="fill:#125973;fill-opacity:1;fill-rule:nonzero;stroke:none"
             d="m 0,0 0.7,-10.12 9.391,-135.636 45.969,86.332 V 45.969 c -8.218,5.478 -16.73,10.629 -25.485,15.2 -20.215,10.556 -45.976,9.8 -68.115,13.504 z" /></g><g
           transform="translate(856.6113,466.6282)"
           id="g200"><path
             id="path202"
             style="fill:#ffb096;fill-opacity:1;fill-rule:nonzero;stroke:none"
             d="M 0,0 C -5.046,2.037 -18.5,12.688 -29.151,7.083 -39.803,1.477 -119.408,0 -119.408,0 l -1.827,6.522 h -7.707 c 0,0 5.61,30.272 -20.178,31.394 -6.27,0.272 -12.147,-0.52 -17.459,-1.869 1.433,-29.561 4.946,-82.907 11.818,-88.948 9.565,-8.41 44.323,5.793 44.323,5.793 l 48.211,17.191 24.666,0.561 c 0,0 3.924,-10.166 15.698,-6.765 11.772,3.401 12.893,8.446 12.893,8.446 H 2.242 c 0,0 2.803,25.637 -2.242,27.675" /></g><g
           transform="translate(736.6426,436.7112)"
           id="g204"><path
             id="path206"
             style="fill:#1b1318;fill-opacity:1;fill-rule:nonzero;stroke:none"
             d="m 0,0 15.697,-38.34 c 2.814,-20.48 5.42,-40.992 7.859,-61.519 2.232,-18.797 6.017,-37.447 6.624,-56.412 0.622,-19.465 -4.395,-35.476 -10.579,-53.572 -8.447,-24.717 -17.389,-49.277 -26.329,-73.82 0,0 -15.696,-14.576 -7.847,-33.637 7.847,-19.059 30.272,32.516 30.272,32.516 l 26.628,91.937 20.462,154.507 -30.272,32.734 z" /></g><g
           transform="translate(837.5508,206.8655)"
           id="g208"><path
             id="path210"
             style="fill:#a71201;fill-opacity:1;fill-rule:nonzero;stroke:none"
             d="m 0,0 c 0,0 -0.218,6.412 -0.652,16.696 -24.198,-7.97 -47.56,-77.241 -47.56,-77.241 L -85.211,-84.09 c 0,0 56.06,144.635 32.515,209.664 -23.546,65.03 -5.607,70.636 -5.607,70.636 7.797,7.259 16.174,10.256 24.406,10.628 -42.933,10.205 -44.587,-28.567 -44.587,-28.567 53.817,-155.847 -36.999,-265.725 -36.999,-265.725 l -38.224,7.644 -55.958,-9.886 c 0,0 -24.666,71.757 -8.969,103.15 6.601,13.202 17.165,18.062 27.194,19.277 l 0.836,34.54 -19.061,3.365 c 0,0 -44.848,13.454 -57.181,13.454 -12.333,0 -38.12,-8.97 -70.635,-25.788 -32.515,-16.818 -20.182,-28.03 -20.182,-28.03 l 71.757,-80.726 63.908,-56.06 H -5.101 c 0,0 -2.217,4.93 -3.287,10.219 -0.377,1.865 -0.966,3.979 -1.275,5.933 -0.489,3.09 -2.052,4.901 0.272,7.466 C 6.794,-65.047 46.748,-41.07 54.893,0 Z" /></g><g
           transform="translate(894.7314,244.9866)"
           id="g212"><path
             id="path214"
             style="fill:#ff4849;fill-opacity:1;fill-rule:nonzero;stroke:none"
             d="m 0,0 c -3.034,37.423 -16.79,73.475 -30.978,101.781 -1.85,-36.012 -8.082,-117.022 -26.855,-123.206 0.435,-10.284 0.652,-16.696 0.652,-16.696 H -2.288 C 0.102,-26.072 1.079,-13.313 0,0" /></g><g
           transform="translate(784.8545,332.4398)"
           id="g216"><path
             id="path218"
             style="fill:#f22529;fill-opacity:1;fill-rule:nonzero;stroke:none"
             d="m 0,0 c 23.545,-65.029 -32.515,-209.664 -32.515,-209.664 l 36.999,23.545 c 0,0 23.363,69.27 47.56,77.241 -0.961,22.752 -2.986,64.462 -6.075,97.666 C 43.767,12.464 59.246,19.642 75.57,20.821 69.745,31.926 63.258,42.479 56.66,53.118 48.408,66.425 36.769,82.076 18.799,81.264 10.567,80.892 2.19,77.895 -5.606,70.636 -5.606,70.636 -23.546,65.029 0,0" /></g><g
           transform="translate(863.7539,346.7679)"
           id="g220"><path
             id="path222"
             style="fill:#ff4849;fill-opacity:1;fill-rule:nonzero;stroke:none"
             d="m 0,0 c -1.108,2.212 -2.22,4.377 -3.328,6.491 -16.325,-1.178 -31.805,-8.355 -29.603,-32.031 3.089,-33.204 5.115,-74.914 6.076,-97.666 C -8.082,-117.022 -1.851,-36.013 0,0" /></g><g
           transform="translate(618.9165,220.3196)"
           id="g224"><path
             id="path226"
             style="fill:#3d0f0a;fill-opacity:1;fill-rule:nonzero;stroke:none"
             d="m 0,0 c -15.697,-31.394 8.97,-103.15 8.97,-103.15 l 55.958,9.886 -40.261,8.053 2.527,104.488 C 17.165,18.062 6.601,13.202 0,0" /></g><g
           transform="translate(509.0391,243.0237)"
           id="g228"><path
             id="path230"
             style="fill:#f53b3f;fill-opacity:1;fill-rule:nonzero;stroke:none"
             d="m 0,0 c -45.962,-2.602 -63.752,-31.362 -70.203,-58.613 3.234,5.063 6.722,10.308 10.499,15.727 31.944,45.832 104.484,26.516 111.499,-28.726 0.4,-3.146 1.149,-26.228 0.475,-39.981 l 30.138,-0.754 C 82.408,-112.347 89.135,5.046 0,0" /></g><g
           transform="translate(560.8345,171.4114)"
           id="g232"><path
             id="path234"
             style="fill:#a91201;fill-opacity:1;fill-rule:nonzero;stroke:none"
             d="m 0,0 c -7.016,55.242 -79.556,74.559 -111.5,28.727 -3.776,-5.419 -7.264,-10.665 -10.499,-15.728 -6.059,-25.598 -2.114,-49.862 -2.114,-49.862 L 0.475,-39.98 C 1.149,-26.228 0.399,-3.146 0,0" /></g><g
           transform="translate(971.0518,208.1673)"
           id="g236"><path
             id="path238"
             style="fill:#f22627;fill-opacity:1;fill-rule:nonzero;stroke:none"
             d="M 0,0 -18.018,-1.302 -37.078,9.35 c 0,0 -9.814,11.725 0.862,18.149 -15.068,7.009 -34.398,11.522 -57.482,7.638 -59.985,-10.091 -61.666,-72.177 -61.666,-72.177 l -3.365,-45.782 5.358,2.113 c -2.983,15.844 -7.748,57.843 19.87,79.407 19.844,15.495 51.034,3.7 73.927,-9.093 l 60.617,9.093 c 0,0 -0.361,0.479 -1.043,1.302" /></g><g
           transform="translate(933.9736,217.5169)"
           id="g240"><path
             id="path242"
             style="fill:#fb7863;fill-opacity:1;fill-rule:nonzero;stroke:none"
             d="M 0,0 19.061,-10.651 37.078,-9.35 C 33.553,-5.094 21.044,8.763 0.862,18.149 -9.813,11.726 0,0 0,0" /></g><g
           transform="translate(837.5508,206.8655)"
           id="g244"><path
             id="path246"
             style="fill:#a60514;fill-opacity:1;fill-rule:nonzero;stroke:none"
             d="m 0,0 c -27.618,-21.564 -22.854,-63.563 -19.87,-79.407 l 32.203,12.709 54.938,56.607 6.656,0.998 C 51.034,3.7 19.844,15.495 0,0" /></g><g
           transform="translate(950.4531,195.7923)"
           id="g248"><path
             id="path250"
             style="fill:#d1e3f3;fill-opacity:1;fill-rule:nonzero;stroke:none"
             d="m 0,0 c 7.281,0.048 14.492,-0.171 21.349,-0.183 4.41,-0.008 10.331,1.394 10.293,5.803 -0.038,4.355 -5.862,5.707 -10.216,5.709 -14.019,0.007 -28.037,0.014 -42.057,0.02 -26.253,0.012 -40.981,-13.576 -56.096,-33.654 -18.203,-24.18 -36.126,-37.618 -65.832,-46.732 -0.604,-0.186 -1.234,-0.386 -1.68,-0.834 -0.884,-0.887 -0.714,-2.352 -0.37,-3.556 3.585,-12.575 23.709,-1.362 31.44,0.993 20.128,6.134 29.966,25.088 43.964,39.239 4.333,4.382 8.628,8.809 12.75,13.392 3.367,3.742 5.831,8.036 10.358,10.584 C -32.386,-1.5 -16.021,-0.105 0,0" /></g><g
           transform="translate(583.6494,171.221)"
           id="g252"><path
             id="path254"
             style="fill:#ff6c66;fill-opacity:1;fill-rule:nonzero;stroke:none"
             d="m 0,0 c 0.239,1.519 -0.054,3.442 -0.485,5.607 -1.318,6.628 -3.092,13.19 -5.404,19.542 -5.181,14.242 -14.549,31.733 -31.47,33.363 -0.828,0.079 -1.66,0.117 -2.491,0.117 -2.599,-10e-4 -2.594,-5.163 -2.289,-6.816 0.943,-5.114 6.902,-6.787 10.567,-9.624 4.593,-3.554 8.652,-7.788 12.058,-12.489 C -12.547,20.085 -8.288,8.46 -7.775,-3.427 -2.351,-3.993 -0.406,-2.583 0,0" /></g><g
           transform="translate(435.5879,110.7122)"
           id="g256"><path
             id="path258"
             style="fill:#b0cddd;fill-opacity:1;fill-rule:nonzero;stroke:none"
             d="m 0,0 c 0.228,-0.126 0.459,-0.231 0.695,-0.313 0.899,-0.314 1.877,-0.283 2.828,-0.249 5.701,0.208 11.367,0.317 17.068,0.315 7.811,-0.001 15.621,-0.024 23.432,-0.024 h 78.511 c 10.168,0 20.364,0.147 30.516,-0.09 7.789,-0.183 12.283,8.627 12.249,15.425 -0.006,1.231 -0.15,2.496 -0.73,3.581 -0.772,1.445 -2.245,2.413 -3.802,2.922 -2.529,0.827 -5.332,0.718 -7.948,1.114 -9.233,1.395 -18.625,1.852 -27.943,2.245 -24.687,1.041 -49.431,0.892 -74.132,0.539 C 40.271,25.315 29.799,25.102 19.328,24.831 13.634,24.684 0.557,26.387 -3.346,21.829 -3.7,21.415 -4.02,20.965 -4.303,20.5 -5.478,18.573 -6.278,16.387 -6.387,14.132 -6.567,10.406 -3.87,2.149 0,0" /></g><g
           transform="translate(447.728,115.5228)"
           id="g260"><path
             id="path262"
             style="fill:#90aec4;fill-opacity:1;fill-rule:nonzero;stroke:none"
             d="m 0,0 c 0.458,-0.297 0.969,-0.529 1.545,-0.678 1.509,-0.387 3.096,-0.276 4.65,-0.176 34.163,2.212 68.781,0.75 103.002,0.75 3.778,0 8.108,4.853 7.042,8.667 -1.526,5.465 -11.04,4.628 -15.306,5.097 C 68.259,17.255 35.495,15.479 2.725,14.716 1.248,14.682 -0.292,14.632 -1.597,13.939 -4.744,12.269 -4.771,8.002 -3.54,5.129 -2.712,3.199 -1.745,1.131 0,0" /></g><g
           transform="translate(580.7959,284.5081)"
           id="g264"><path
             id="path266"
             style="fill:#d02317;fill-opacity:1;fill-rule:nonzero;stroke:none"
             d="m 0,0 c 0,0 28.059,-3.363 31.969,-13.174 3.909,-9.81 0.926,-36.438 0.926,-36.438 0,0 -8.789,-4.613 -8.789,4.701 -0.001,5.44 -0.383,10.918 -1.176,16.3 -0.667,4.528 -1.257,11.43 -5.453,14.176 -1.248,0.817 -2.727,1.188 -4.18,1.526 -2.41,0.561 -4.832,1.07 -7.264,1.526 -1.957,0.367 -3.944,0.707 -5.762,1.519 C -5.214,-7.418 -6.271,-1.782 0,0" /></g><g
           transform="translate(642.7422,305.6712)"
           id="g268"><path
             id="path270"
             style="fill:#983734;fill-opacity:1;fill-rule:nonzero;stroke:none"
             d="m 0,0 h -72.738 c 0,0 -10.695,12.897 -7.45,15.067 3.246,2.171 67.824,0 67.824,0 0,0 14.046,-2.454 12.364,-15.067" /></g><g
           transform="translate(354.3135,435.0296)"
           id="g272"><path
             id="path274"
             style="fill:none;stroke:#8b0106;stroke-width:4;stroke-linecap:butt;stroke-linejoin:miter;stroke-miterlimit:10;stroke-dasharray:none;stroke-opacity:1"
             d="M 0,0 H 142.524" /></g><g
           transform="translate(498.5195,298.2435)"
           id="g276"><path
             id="path278"
             style="fill:none;stroke:#b30f00;stroke-width:4;stroke-linecap:butt;stroke-linejoin:miter;stroke-miterlimit:10;stroke-dasharray:none;stroke-opacity:1"
             d="M 0,0 H -145.888" /></g><g
           transform="translate(872.4844,122.4339)"
           id="g280"><path
             id="path282"
             style="fill:#50120b;fill-opacity:1;fill-rule:nonzero;stroke:none"
             d="m 0,0 -10.506,-7.249 h -4.637 l -0.406,16.246 1.486,1.982 z" /></g><g
           transform="translate(912.6816,146.8167)"
           id="g284"><path
             id="path286"
             style="fill:#50120b;fill-opacity:1;fill-rule:nonzero;stroke:none"
             d="m 0,0 c 0,0 0.41,25.373 -15.567,22.319 l -1.696,-3.592 z" /></g></g></g><g
       id="g288"><g
         clip-path="url(#clipPath294)"
         id="g290"><g
           transform="translate(726.5518,340.2884)"
           id="g296"><path
             id="path298"
             style="fill:#3199bc;fill-opacity:1;fill-rule:nonzero;stroke:none"
             d="m 0,0 c 0,0 -1.491,29.151 -37.185,40.363 -18.607,5.845 -53.715,4.376 -83.067,1.631 -1.733,-5.712 -4.469,-12.261 -8.686,-19.57 C -145.756,-6.728 -56.06,3.363 -56.06,3.363 l -25.168,-179.391 h 52.077 z" /></g><g
           transform="translate(597.6138,362.7122)"
           id="g300"><path
             id="path302"
             style="fill:#125775;fill-opacity:1;fill-rule:nonzero;stroke:none"
             d="m 0,0 c 4.217,7.31 6.953,13.858 8.686,19.57 -26.951,-2.52 -49.54,0 -49.54,0 0,0 -7.357,-62.175 8.339,-62.175 H 53.818 L 39.242,-198.452 h 8.468 l 25.168,179.391 c 0,0 -89.696,-10.09 -72.878,19.061" /></g><g
           transform="translate(681.1152,140.1468)"
           id="g304"><path
             id="path306"
             style="fill:#f2690c;fill-opacity:1;fill-rule:nonzero;stroke:none"
             d="m 0,0 c 14.828,0.553 22.92,-9.804 22.92,-9.804 l 2.035,-9.156 h 15.98 c -0.826,8.112 -0.675,21.1 3.52,25.835 1.465,1.652 1.187,2.388 0.46,2.782 C 39.918,7.139 27.796,1.4 22.92,2.39 17.228,3.545 -5.437,5.788 -13.097,22.301 c 0.007,-0.144 0.022,-0.285 0.022,-0.43 0,-5.031 -4.079,-9.11 -9.11,-9.11 -5.031,0 -9.11,4.079 -9.11,9.11 0,0.775 0.108,1.524 0.29,2.242 h -13.254 c 0,0 -2.099,-5.316 -2.104,-5.328 -1.897,-4.813 0.29,-11.378 0.783,-16.348 0.084,-0.846 0.153,-1.693 0.229,-2.54 C -32.978,-0.23 -10.458,-0.391 0,0" /></g><g
           transform="translate(658.9302,121.1868)"
           id="g308"><path
             id="path310"
             style="fill:#f2690c;fill-opacity:1;fill-rule:nonzero;stroke:none"
             d="M 0,0 C 9.461,7.661 17.027,0 17.027,0 H 38.698 C 36.267,3.571 34.266,6.214 34.266,6.214 L -4.416,8.315 -22.237,7.219 c 0.174,-2.407 0.35,-4.814 0.535,-7.219 z" /></g><g
           transform="translate(697.4004,164.2601)"
           id="g312"><path
             id="path314"
             style="fill:#de6000;fill-opacity:1;fill-rule:nonzero;stroke:none"
             d="m 0,0 h -29.65 c 0.148,-0.584 0.239,-1.189 0.268,-1.812 7.66,-16.513 30.325,-18.756 36.017,-19.912 4.876,-0.989 16.998,4.749 21.995,7.268 -4.848,2.505 -16.016,5.346 -16.016,5.346 z" /></g><g
           transform="translate(693.1963,127.4007)"
           id="g316"><path
             id="path318"
             style="fill:#ffbb17;fill-opacity:1;fill-rule:nonzero;stroke:none"
             d="m 0,0 c 0,0 2.001,-2.643 4.432,-6.214 h 8.442 l -2.035,9.156 c 0,0 -8.092,10.357 -22.92,9.804 -10.459,-0.391 -32.978,-0.23 -45.351,-0.102 0.352,-3.874 0.648,-7.756 0.929,-11.639 l 17.821,1.097 z" /></g><g
           transform="translate(647.6499,115.7601)"
           id="g320"><path
             id="path322"
             style="fill:#ffe5d6;fill-opacity:1;fill-rule:nonzero;stroke:none"
             d="m 0,0 c 3.093,-0.011 12.118,-1.513 13.383,0.709 0.002,0.004 3.156,5.464 12.402,0 h 27.272 c -1.028,1.649 -2.088,3.262 -3.079,4.718 h -21.67 c 0,0 -7.567,7.661 -17.028,0 h -21.701 c 0.028,-0.378 0.055,-0.757 0.085,-1.137 0.373,-4.718 6.565,-4.459 9.981,-4.296 C -0.248,-0.001 -0.129,0.001 0,0" /></g><g
           transform="translate(707.1182,116.4691)"
           id="g324"><path
             id="path326"
             style="fill:#ffe5d6;fill-opacity:1;fill-rule:nonzero;stroke:none"
             d="m 0,0 h 15.51 c 0,0 -0.291,1.89 -0.578,4.718 h -15.98 z" /></g><g
           transform="translate(707.1182,116.4691)"
           id="g328"><path
             id="path330"
             style="fill:#ffe5d6;fill-opacity:1;fill-rule:nonzero;stroke:none"
             d="M 0,0 -1.048,4.718 H -9.49 C -8.5,3.262 -7.439,1.649 -6.411,0 Z" /></g><g
           transform="translate(666.3022,167.3538)"
           id="g332"><path
             id="path334"
             style="fill:#125973;fill-opacity:1;fill-rule:nonzero;stroke:none"
             d="m 0,0 v 0 c -1.655,2.283 -4.336,3.773 -7.372,3.773 -4.256,0 -7.82,-2.922 -8.82,-6.867 H 0.961 C 0.592,-2.106 0.261,-1.083 0,0" /></g><g
           transform="translate(658.9302,152.9075)"
           id="g336"><path
             id="path338"
             style="fill:#125973;fill-opacity:1;fill-rule:nonzero;stroke:none"
             d="m 0,0 c 5.031,0 9.11,4.079 9.11,9.11 0,0.145 -0.015,0.286 -0.022,0.43 -0.272,0.586 -0.523,1.19 -0.755,1.813 H -8.82 C -9.002,10.634 -9.11,9.885 -9.11,9.11 -9.11,4.079 -5.031,0 0,0" /></g><g
           transform="translate(667.2632,164.2601)"
           id="g340"><path
             id="path342"
             style="fill:#125973;fill-opacity:1;fill-rule:nonzero;stroke:none"
             d="M 0,0 H 0.487 C 0.2,1.131 -0.295,2.177 -0.961,3.094 -0.7,2.011 -0.369,0.987 0,0" /></g><g
           transform="translate(667.2632,164.2601)"
           id="g344"><path
             id="path346"
             style="fill:#125973;fill-opacity:1;fill-rule:nonzero;stroke:none"
             d="M 0,0 C 0.232,-0.622 0.483,-1.227 0.755,-1.812 0.726,-1.189 0.635,-0.584 0.487,0 Z" /></g><g
           transform="translate(707.4912,504.5438)"
           id="g348"><path
             id="path350"
             style="fill:#fc8a77;fill-opacity:1;fill-rule:nonzero;stroke:none"
             d="m 0,0 c 25.788,-1.121 20.178,-31.393 20.178,-31.393 h 7.707 L 14.716,13.455 14.012,25.493 c 0,0 -1.277,0.458 -3.431,0.54 -1.632,0.062 -3.769,-0.178 -6.236,-0.493 -4.478,-0.573 -8.868,-1.741 -13.081,-3.353 -2.661,-1.017 -7.772,-1.862 -9.527,-4.54 -0.215,-0.327 0.032,-1.099 -0.086,-1.47 -0.608,-1.919 1.162,-18.14 0.34,-18.349 C -12.697,-0.824 -6.27,0.272 0,0" /></g><g
           transform="translate(727.4014,525.7864)"
           id="g352"><path
             id="path354"
             style="fill:#ee2925;fill-opacity:1;fill-rule:nonzero;stroke:none"
             d="m 0,0 c -2.415,10.553 -5.892,21.105 -10.455,30.927 -4.029,8.654 -9.031,17.103 -15.994,23.711 -12.67,12.024 -32.696,14.554 -48.96,19.141 0,0 24.771,-37.946 -10.511,-42.045 -24.849,-2.887 -36.565,23.944 -41.028,38.338 -8.486,-1.575 -42.446,-8.562 -49.79,-20.679 -5.17,-8.531 -12.403,-25.002 -17.307,-37.407 13.689,-1.323 33.285,-5.815 43.802,-20.128 l 6.721,13.808 4.625,15.136 4.625,2.944 9.25,-3.785 -13.034,-10.511 -2.733,-16.818 -2.733,-35.738 4.867,-102.589 h 104.45 c -0.788,28.195 -1.576,56.391 -2.363,84.587 -0.536,19.17 -1.076,38.341 -1.605,57.513 0.945,0.566 2.517,1.354 4.492,2.22 l -1.365,25.121 5.045,-16.398 4.45,-5.64 c 5.962,1.938 12.753,3.425 17.96,2.829 C -5.06,3.026 -2.518,1.532 0,0" /></g><g
           transform="translate(600.4531,595.8587)"
           id="g356"><path
             id="path358"
             style="fill:#d10304;fill-opacity:1;fill-rule:nonzero;stroke:none"
             d="m 0,0 c -1.603,5.171 -2.279,8.752 -2.279,8.752 0,0 -58.022,1.682 -79.885,-66.431 0,0 6.332,0.437 15.067,-0.407 4.905,12.405 12.137,28.876 17.307,37.407 C -42.446,-8.562 -8.485,-1.576 0,0" /></g><g
           transform="translate(634.6191,565.0887)"
           id="g360"><path
             id="path362"
             style="fill:#fdb599;fill-opacity:1;fill-rule:nonzero;stroke:none"
             d="m 0,0 c 5.297,0 11.302,-0.118 15.641,3.532 9.031,7.551 0.874,22.267 -1.127,33.047 C 3.565,36.377 -16.768,27.783 -27.649,22.822 -21.241,13.017 -11.604,0 0,0" /></g><g
           transform="translate(689.6309,708.7142)"
           id="g364"><path
             id="path366"
             style="fill:#fdb599;fill-opacity:1;fill-rule:nonzero;stroke:none"
             d="m 0,0 c -3.919,15.994 -13.808,32.324 -25.311,44.736 -17.121,18.516 -39.64,11.688 -56.896,-0.118 -9.838,-6.71 -18.835,-14.648 -27.211,-23.091 -2.001,-2.018 -11.033,-9.014 -11.184,-12.109 0,-0.017 -0.504,-9.771 0.824,-22.738 l 7.585,13.202 33.35,-5.314 -1.127,-42.869 h -3.279 c 4.726,-27.245 25.294,-42.398 38.109,-48.52 7.821,-3.734 21.612,-1.833 31.837,0.454 h 0.016 c 4.188,3.095 8.225,7.585 10.999,11.89 5.92,9.149 7.67,20.4 8.006,31.097 C 6.29,-35.486 4.255,-17.39 0,0" /></g><g
           transform="translate(605.7427,665.0042)"
           id="g368"><path
             id="path370"
             style="fill:#fdb599;fill-opacity:1;fill-rule:nonzero;stroke:none"
             d="m 0,0 c 0.168,-1.564 0.37,-3.094 0.639,-4.591 h 3.279 l 1.127,42.869 -33.35,5.314 -7.181,-13.202 c 0.153,-1.446 0.232,-2.956 0.526,-4.475 0.641,-3.322 1.285,-6.771 2.001,-10.291 C -20.278,18.718 -2.035,19.862 0,0" /></g><g
           id="g372"><g
             id="g374" /><g
             id="g386"><g
               style="opacity:0.30999804"
               id="g384"
               clip-path="url(#clipPath378)"><g
                 id="g382"
                 transform="translate(650.0298,711.2606)"><path
                   id="path380"
                   style="fill:#cd6b52;fill-opacity:1;fill-rule:nonzero;stroke:none"
                   d="m 0,0 -42.045,-23.917 -1.015,13.662 z" /></g></g></g></g><g
           id="g388"><g
             id="g390" /><g
             id="g402"><g
               style="opacity:0.30999804"
               id="g400"
               clip-path="url(#clipPath394)"><g
                 id="g398"
                 transform="translate(688.9561,711.2606)"><path
                   id="path396"
                   style="fill:#e26f62;fill-opacity:1;fill-rule:nonzero;stroke:none"
                   d="m 0,0 -7.252,-2.664 -19.799,-0.235 -0.618,11.12 12.871,10.87 9.641,-1.243 z" /></g></g></g></g></g></g><g
       id="g404"><g
         id="g406"><g
           id="g412"><g
             id="g414"><path
               id="path426"
               style="fill:url(#linearGradient424);stroke:none"
               d="m 570.257,694.503 c 0.487,-4.894 4.036,-20.703 5.079,-26.236 v 0 c 0.017,0.337 0.823,1.094 1.009,1.312 v 0 c 0.757,0.908 1.547,1.817 2.337,2.707 v 0 c 0.824,0.925 1.665,1.834 2.54,2.708 v 0 c 1.21,1.228 2.809,1.548 4.305,2.287 v 0 c 1.883,0.909 3.936,-0.05 6.055,-0.471 v 0 c 0.691,-0.142 1.383,-0.123 2.057,-0.104 v 0 c 1.08,0.032 2.117,0.062 3.038,-0.568 v 0 c 3.667,-2.473 6.173,-6.223 7.333,-10.444 v 0 c 0,-0.017 0.017,-0.034 0,-0.05 v 0 c 0.102,-0.304 0.169,-0.606 0.219,-0.892 v 0 c 0.271,-1.147 0.405,-2.325 0.495,-3.499 v 0 c 0.047,-0.623 0.026,-1.25 0.061,-1.874 v 0 c 0.01,-0.184 0.015,-0.505 0.219,-0.584 v 0 c 0.057,-0.023 0.121,-0.019 0.181,-0.016 v 0 c 0.265,0.016 3.599,0.044 3.602,0.087 v 0 c 0,10e-4 2.001,44.063 2.001,44.063 v 0 l -33.013,5.667 z" /></g></g></g></g><g
       id="g428"><g
         clip-path="url(#clipPath434)"
         id="g430"><g
           transform="translate(596.0723,657.3187)"
           id="g436"><path
             id="path438"
             style="fill:#fa9078;fill-opacity:1;fill-rule:nonzero;stroke:none"
             d="M 0,0 C 0.303,-0.488 0.74,-0.875 1.042,-1.346 2.472,-3.465 1.883,-6.105 0,-6.694 c -1.581,-0.488 -5.819,0.555 -7.198,1.446 -0.606,0.388 -1.094,0.909 -1.564,1.447 -4.743,5.415 -7.635,17.155 1.614,20.047 C -2.657,17.642 3.498,6.155 3.498,6.155 3.044,7.013 -1.581,2.691 0,0 M 80.255,-44.972 C 70.03,-47.259 56.239,-49.159 48.419,-45.426 35.856,-39.421 15.826,-24.723 10.612,1.547 h -0.017 c -0.387,0 -0.942,-0.101 -1.311,0 C 8.645,1.715 8.796,1.968 8.745,2.708 8.695,3.397 8.645,4.086 8.577,4.759 8.527,5.348 8.442,5.937 8.342,6.508 8.291,6.811 8.224,7.131 8.157,7.434 8.106,7.719 8.039,8.022 7.938,8.325 c 0.017,0.016 0,0.033 0,0.05 -0.74,2.708 -2.052,6.088 -4.44,8.998 -4.49,5.482 -17.894,6.105 -24.151,-6.139 -0.05,-0.067 -0.084,-0.151 -0.084,-0.286 v -0.05 c 2.372,-7.383 5.651,-14.497 10.125,-20.451 0.555,-0.017 1.227,-0.101 2.069,-0.269 7.954,-1.665 10.712,-7.349 11.637,-11.705 0.051,-0.017 0.085,-0.051 0.135,-0.068 l 6.727,-6.172 c -0.488,-7.45 0.875,-15.254 -1.026,-22.569 -1.968,-7.585 -5.062,-7.938 -0.572,-15.069 0.774,-1.228 1.632,-2.591 2.54,-4.003 10.881,4.961 31.214,13.555 42.163,13.757 -0.303,1.581 -0.455,3.061 -0.421,4.44 9.267,0.118 19.139,0.404 26.791,5.651 0.269,0.185 0.555,0.387 0.824,0.588" /></g><g
           transform="translate(588.9253,673.5648)"
           id="g440"><path
             id="path442"
             style="fill:#db644c;fill-opacity:1;fill-rule:nonzero;stroke:none"
             d="m 0,0 c -9.246,-2.886 -6.354,-14.637 -1.62,-20.054 0.468,-0.535 0.969,-1.051 1.564,-1.44 1.376,-0.898 5.617,-1.937 7.206,-1.442 1.874,0.584 2.474,3.224 1.048,5.341 -0.319,0.473 -0.754,0.863 -1.044,1.354 -1.592,2.687 3.033,7.015 3.496,6.15 C 10.65,-10.09 4.484,1.4 0,0" /></g><g
           transform="translate(587.5288,647.4969)"
           id="g444"><path
             id="path446"
             style="fill:#fa9078;fill-opacity:1;fill-rule:nonzero;stroke:none"
             d="M 0,0 C -0.841,0.168 -1.514,0.252 -2.069,0.269 1.614,-4.676 6.122,-8.83 11.638,-11.706 10.713,-7.35 7.955,-1.665 0,0" /></g></g></g><g
       id="g448"><g
         id="g450"><g
           id="g456"><g
             id="g458"><path
               id="path470"
               style="fill:url(#linearGradient468);stroke:none"
               d="m 599.167,635.792 c -0.925,4.355 -3.684,10.04 -11.638,11.705 v 0 c -0.842,0.168 -1.514,0.252 -2.069,0.269 v 0 c 3.683,-4.945 8.191,-9.099 13.707,-11.974" /></g></g></g></g><g
       id="g472"><g
         clip-path="url(#clipPath478)"
         id="g474"><g
           transform="translate(661.522,687.3441)"
           id="g480"><path
             id="path482"
             style="fill:#ffffff;fill-opacity:1;fill-rule:nonzero;stroke:none"
             d="m 0,0 c 0,-7.545 5.334,-13.661 11.913,-13.661 6.579,0 11.913,6.116 11.913,13.661 0,7.545 -5.334,13.661 -11.913,13.661 C 5.334,13.661 0,7.545 0,0" /></g><g
           transform="translate(627.6797,684.5047)"
           id="g484"><path
             id="path486"
             style="fill:#ffffff;fill-opacity:1;fill-rule:nonzero;stroke:none"
             d="m 0,0 c 0,-7.545 5.333,-13.661 11.913,-13.661 6.579,0 11.913,6.116 11.913,13.661 0,7.545 -5.334,13.661 -11.913,13.661 C 5.333,13.661 0,7.545 0,0" /></g><g
           transform="translate(666.0068,684.5843)"
           id="g488"><path
             id="path490"
             style="fill:#40312f;fill-opacity:1;fill-rule:nonzero;stroke:none"
             d="m 0,0 c 0,-4.538 2.636,-8.217 5.886,-8.217 3.251,0 5.887,3.679 5.887,8.217 0,4.538 -2.636,8.216 -5.887,8.216 C 2.636,8.216 0,4.538 0,0" /></g><g
           transform="translate(632.189,681.8997)"
           id="g492"><path
             id="path494"
             style="fill:#40312f;fill-opacity:1;fill-rule:nonzero;stroke:none"
             d="m 0,0 c 0,-4.538 2.636,-8.217 5.886,-8.217 3.251,0 5.887,3.679 5.887,8.217 0,4.538 -2.636,8.216 -5.887,8.216 C 2.636,8.216 0,4.538 0,0" /></g><g
           transform="translate(661.9053,708.3616)"
           id="g496"><path
             id="path498"
             style="fill:#711d04;fill-opacity:1;fill-rule:nonzero;stroke:none"
             d="m 0,0 c 0.575,0.94 1.417,1.94 1.932,2.519 2.639,2.966 5.542,5.465 9.739,5.574 5.199,0.136 8.885,-3.051 11.771,-7.011 l 1.682,-2.523 C 20.931,1.234 16.318,4.398 11.267,2.582 8.089,1.439 4.772,-1.275 1.659,-2.091 -1.149,-2.827 -0.911,-1.489 0,0" /></g><g
           transform="translate(671.8896,665.4124)"
           id="g500"><path
             id="path502"
             style="fill:#f59b86;fill-opacity:1;fill-rule:nonzero;stroke:none"
             d="m 0,0 c -2.149,-0.297 -4.777,-2.606 -6.971,-2.743 -1.111,-0.069 -2.234,0.037 -3.334,-0.134 -1.71,-0.267 -4.478,-3.549 -1.502,-3.923 3.536,-0.445 11.556,-1.772 14.076,1.801 1.067,1.513 0.896,4.293 -1.112,4.925 C 0.792,0.041 0.405,0.056 0,0" /></g><g
           transform="translate(674.8066,655.0648)"
           id="g504"><path
             id="path506"
             style="fill:#4b2321;fill-opacity:1;fill-rule:nonzero;stroke:none"
             d="m 0,0 c 0,0 -0.058,-0.144 -0.208,-0.383 0.178,-4.491 -1.23,-11.853 -12.634,-10.969 -11.37,0.881 -14.079,3.301 -15.253,6.614 -0.515,-0.394 -1.806,-1.473 -2.738,-3.058 3.807,-1.972 16.525,-9.151 22.326,-12.434 1.787,0.196 3.429,0.418 4.796,0.595 3.921,0.505 7.593,4.139 9.175,7.73 C 7.72,-6.781 4.291,-2.616 0,0" /></g><g
           transform="translate(661.9644,643.7127)"
           id="g508"><path
             id="path510"
             style="fill:#ffffff;fill-opacity:1;fill-rule:nonzero;stroke:none"
             d="M 0,0 C 11.404,-0.884 12.812,6.478 12.634,10.969 11.611,9.334 6.251,3.173 -15.018,6.788 c 0,0 -0.094,-0.067 -0.234,-0.174 C -14.079,3.301 -11.37,0.881 0,0" /></g><g
           transform="translate(645.0547,638.6673)"
           id="g512"><path
             id="path514"
             style="fill:#e66154;fill-opacity:1;fill-rule:nonzero;stroke:none"
             d="M 0,0 C 4.221,-5.002 13.975,-4.634 21.245,-3.833 15.444,-0.549 2.726,6.63 -1.081,8.602 -2.333,6.474 -2.915,3.454 0,0" /></g><g
           transform="translate(699.0825,743.2191)"
           id="g516"><path
             id="path518"
             style="fill:#830013;fill-opacity:1;fill-rule:nonzero;stroke:none"
             d="m 0,0 c -2.88,-3.866 -5.936,-6.452 -9.504,-9.641 l -2.097,-1.636 c -1.511,-1.178 -3.206,-2.478 -5.018,-3.846 l -0.76,-1.747 7.664,-16.906 c 0,0 44.472,1.121 44.192,18.219 C 34.197,1.542 0,0 0,0" /></g></g></g><g
       id="g520"><g
         id="g522"><g
           id="g528"><g
             id="g530"><path
               id="path538"
               style="fill:url(#linearGradient536);stroke:none"
               d="M 613.31,764.906 C 556.69,753.45 570.076,693.39 570.076,693.39 v 0 l 21.931,2.318 c 0,0 31.955,1.121 51.576,8.41 v 0 c 11.647,4.325 27.724,15.557 38.881,23.978 v 0 c 1.811,1.368 3.506,2.668 5.017,3.846 v 0 l 2.097,1.636 c 3.569,3.189 6.624,5.776 9.504,9.641 v 0 h -19.621 c 0,0 -6.933,24.092 -44.068,24.094 v 0 c -6.42,10e-4 -13.737,-0.719 -22.083,-2.407 m 10.824,-17.94 c -1.011,5.006 5.09,10.464 13.629,12.188 v 0 c 8.537,1.723 16.278,-0.939 17.289,-5.947 v 0 c 1.01,-5.007 -5.091,-10.463 -13.628,-12.188 v 0 c -1.762,-0.355 -3.491,-0.524 -5.133,-0.524 v 0 c -6.315,0 -11.355,2.497 -12.157,6.471" /></g></g></g></g><g
       id="g540"><g
         clip-path="url(#clipPath546)"
         id="g542"><g
           transform="translate(637.7622,759.1536)"
           id="g548"><path
             id="path550"
             style="fill:#fff3fc;fill-opacity:1;fill-rule:nonzero;stroke:none"
             d="m 0,0 c -8.538,-1.724 -14.639,-7.181 -13.628,-12.188 1.01,-5.008 8.751,-7.67 17.289,-5.946 8.538,1.724 14.639,7.18 13.628,12.188 C 16.278,-0.938 8.538,1.724 0,0" /></g><g
           id="g552"><g
             id="g554" /><g
             id="g566"><g
               style="opacity:0.22000098"
               id="g564"
               clip-path="url(#clipPath558)"><g
                 id="g562"
                 transform="translate(592.0078,695.7083)"><path
                   id="path560"
                   style="fill:none;stroke:#830013;stroke-width:1;stroke-linecap:butt;stroke-linejoin:miter;stroke-miterlimit:10;stroke-dasharray:none;stroke-opacity:1"
                   d="M 0,0 C 0,0 27.049,49.053 87.454,47.511" /></g></g></g></g><g
           transform="translate(666.0972,687.0276)"
           id="g568"><path
             id="path570"
             style="fill:#ffffff;fill-opacity:1;fill-rule:nonzero;stroke:none"
             d="M 0,0 C -0.231,-1.231 -0.002,-2.308 0.511,-2.404 1.024,-2.501 1.628,-1.581 1.859,-0.35 2.091,0.882 1.862,1.958 1.349,2.055 0.835,2.151 0.231,1.231 0,0" /></g><g
           transform="translate(632.2949,684.7737)"
           id="g572"><path
             id="path574"
             style="fill:#ffffff;fill-opacity:1;fill-rule:nonzero;stroke:none"
             d="M 0,0 C -0.251,-1.228 -0.04,-2.308 0.472,-2.412 0.984,-2.517 1.603,-1.606 1.854,-0.379 2.104,0.849 1.893,1.928 1.381,2.033 0.869,2.138 0.25,1.228 0,0" /></g><g
           transform="translate(532.3096,520.1028)"
           id="g576"><path
             id="path578"
             style="fill:#6e0814;fill-opacity:1;fill-rule:nonzero;stroke:none"
             d="m 0,0 c 0,0 -15.572,10.63 -14.447,16.921 1.125,6.291 17.665,0.748 17.665,0.748 L 0.022,-0.908" /></g><g
           transform="translate(586.6123,518.4188)"
           id="g580"><path
             id="path582"
             style="fill:#8c021a;fill-opacity:1;fill-rule:nonzero;stroke:none"
             d="M 0,0 2.733,16.818 15.767,27.329 6.517,31.113 1.892,28.17 -2.733,13.034 -9.454,-0.774 c 1.253,-1.705 2.388,-3.538 3.357,-5.533 l -29.011,-80.726 1.261,-51.295 H 2.134 l -4.867,102.589 z" /></g><g
           transform="translate(559.7148,430.5443)"
           id="g584"><path
             id="path586"
             style="fill:#feb59e;fill-opacity:1;fill-rule:nonzero;stroke:none"
             d="M 0,0 50.653,-3.994 H 77.562 L 89.334,0 h 5.38 13.961 l 5.362,-3.918 c 0.032,0.077 0.074,0.147 0.104,0.227 2.522,6.726 -0.841,39.52 -9.25,41.204 -15.335,3.069 -37.456,3.168 -45.772,-13.468 -3.93,-7.861 -20.985,-2.913 -27.389,-1.668 -4.536,0.882 -9.126,1.471 -13.567,2.802 -3.564,1.067 -7.085,2.028 -7.842,5.934 H 3.563 v 48.773 c 0,0 -14.986,16.981 -30.094,19.127 -0.996,-6.579 -0.886,-10.039 -0.852,-10.69 0.833,-16.432 -0.017,-32.88 -1.175,-49.274 -0.271,-3.846 -2.799,-17.289 -3.484,-28.1 z" /></g><g
           transform="translate(563.2773,510.43)"
           id="g588"><path
             id="path590"
             style="fill:#f29277;fill-opacity:1;fill-rule:nonzero;stroke:none"
             d="m 0,0 v -48.772 h 6.759 c -0.023,0.119 -0.068,0.214 -0.086,0.339 -0.714,5.006 2.27,12.555 3.054,17.595 1.146,7.371 1.424,14.292 3.792,21.088 0.522,1.5 1.146,2.993 1.903,4.483 6.186,12.178 -6.465,20.298 -16.183,24.629 -4.129,1.84 -8.599,3.698 -13.04,5.061 -2.365,0.727 -4.765,1.337 -7.196,1.8 -1.432,0.273 -5.439,0.791 -6.753,0.791 -1.156,0 -1.839,-4.743 -2.102,-6.32 -0.093,-0.556 -0.163,-1.05 -0.241,-1.567 C -14.986,16.981 0,0 0,0" /></g><g
           transform="translate(529.8267,427.0989)"
           id="g592"><path
             id="path594"
             style="fill:#f88e83;fill-opacity:1;fill-rule:nonzero;stroke:none"
             d="m 0,0 c 0.827,-0.517 1.84,-0.61 2.812,-0.691 23.081,-1.896 46.153,-3.907 69.226,-5.9 5.17,-0.446 10.224,-1.263 15.398,-0.449 3.122,0.492 6.247,0.948 9.36,1.504 6.448,1.152 13.688,2.151 19.586,5.17 0.873,0.447 1.864,0.968 2.424,1.808 1.883,2.815 3.873,-1.801 4.392,-3.385 0.593,-1.811 1.282,-3.829 2.979,-4.695 1.099,-0.56 2.399,-0.505 3.63,-0.418 2.724,0.193 5.479,0.484 8.032,1.453 2.553,0.97 4.916,2.696 6.137,5.139 -2.046,0.972 -3.44,3.151 -5.635,3.711 -3.185,0.814 -6.561,0.527 -9.808,0.385 C 125.25,3.486 121.948,3.608 118.687,3.136 115.646,2.695 112.854,1.476 109.863,0.824 106.729,0.142 103.566,0.179 100.383,0.04 93.256,-0.271 86.104,-0.842 78.978,-0.222 70.29,0.534 61.608,1.362 52.934,2.264 45.666,3.019 38.262,3.09 31.111,4.693 22.515,6.621 14.277,9.495 5.854,12.004 5.37,12.148 -2.178,14.147 -2.153,14.395 -2.6,7.345 -2.264,1.412 0,0" /></g><g
           transform="translate(692.355,549.532)"
           id="g596"><path
             id="path598"
             style="fill:#aa041b;fill-opacity:1;fill-rule:nonzero;stroke:none"
             d="m 0,0 1.365,-25.12 c 2.276,0.997 5.093,2.095 8.131,3.082 l -4.451,5.641 z" /></g><g
           transform="translate(727.4121,525.7879)"
           id="g600"><path
             id="path602"
             style="fill:#692b2d;fill-opacity:1;fill-rule:nonzero;stroke:none"
             d="M 0,0 C 0.219,-0.923 -0.198,0.925 0,0 0.101,-0.216 0.174,-0.459 0.257,-0.692" /></g><g
           transform="translate(727.4121,525.7879)"
           id="g604"><path
             id="path606"
             style="fill:#692b2d;fill-opacity:1;fill-rule:nonzero;stroke:none"
             d="m 0,0 c 0.066,-0.31 0.12,-0.619 0.184,-0.929 0.024,0.079 0.05,0.16 0.073,0.237 C 0.174,-0.459 0.101,-0.216 0,0" /></g><g
           transform="translate(719.8105,530.3968)"
           id="g608"><path
             id="path610"
             style="fill:#692b2d;fill-opacity:1;fill-rule:nonzero;stroke:none"
             d="m 0,0 2.396,-12.398 c 3.076,1.024 4.635,4.386 5.389,6.86 -0.063,0.31 -0.117,0.62 -0.183,0.929 C 6.303,-1.837 3.586,-0.415 0.131,0 0.097,0.004 0.033,-0.004 0,0" /></g></g></g><g
       id="g612"><g
         clip-path="url(#clipPath618)"
         id="g614"><g
           transform="translate(859.127,456.0325)"
           id="g620"><path
             id="path622"
             style="fill:#221414;fill-opacity:1;fill-rule:nonzero;stroke:none"
             d="m 0,0 -0.338,-11.263 c 0,0 3.686,0.085 4.338,5.088 C 4.653,-1.172 0,0 0,0" /></g><g
           transform="translate(844.1875,454.3509)"
           id="g624"><path
             id="path626"
             style="fill:#221414;fill-opacity:1;fill-rule:nonzero;stroke:none"
             d="m 0,0 c 0,-7.639 -4.729,-13.831 -10.562,-13.831 -5.833,0 -10.561,6.192 -10.561,13.831 0,7.639 4.728,13.831 10.561,13.831 C -4.729,13.831 0,7.639 0,0" /></g><g
           transform="translate(825.3652,466.3538)"
           id="g628"><path
             id="path630"
             style="fill:#d1050d;fill-opacity:1;fill-rule:nonzero;stroke:none"
             d="M 0,0 C 0,0 4.267,9.39 -8.557,28.94 -21.431,48.568 -57.591,45.123 -75.144,36.049 -85.31,30.795 -89.289,19.147 -91.387,8.482 -85.107,4.03 -78.305,-2.203 -80.454,-7.219 l -71.564,-7.126 c 0.867,-9.162 1.328,-18.884 1.328,-18.884 17.018,0.386 31.553,0.601 48.562,1.097 l 35.129,10.338 -0.844,-14.528 c 2.226,-0.902 4.469,-1.791 6.776,-2.523 8.405,-2.665 18.034,-5.16 26.862,-3.271 16.818,3.599 31.534,17.238 31.534,17.238 6.728,-1.682 13.515,3.335 13.515,3.335 3.303,3.393 3.961,7.805 4.565,10.54 C 18.982,5.185 0,0 0,0" /></g><g
           transform="translate(733.9785,474.8362)"
           id="g632"><path
             id="path634"
             style="fill:#ff4644;fill-opacity:1;fill-rule:nonzero;stroke:none"
             d="m 0,0 c -0.147,-0.755 -0.288,-1.505 -0.419,-2.246 0,-10e-4 -63.154,-11.861 -63.154,-11.861 1.721,-2.581 2.644,-5.571 2.942,-8.72 l 71.564,7.126 C 13.082,-10.686 6.279,-4.452 0,0" /></g><g
           transform="translate(723.2373,434.222)"
           id="g636"><path
             id="path638"
             style="fill:#ff4644;fill-opacity:1;fill-rule:nonzero;stroke:none"
             d="m 0,0 c 5.208,0.151 10.414,0.319 15.615,0.524 6.724,0.265 12.635,-2.27 18.67,-4.714 l 0.844,14.528 z" /></g><g
           transform="translate(758.7715,466.5013)"
           id="g640"><path
             id="path642"
             style="fill:#ed2225;fill-opacity:1;fill-rule:nonzero;stroke:none"
             d="m 0,0 c 0,-22.724 12.736,-41.144 28.448,-41.144 15.711,0 28.448,18.42 28.448,41.144 0,22.723 -12.737,41.143 -28.448,41.143 C 12.736,41.143 0,22.723 0,0" /></g><g
           transform="translate(767.1953,466.5013)"
           id="g644"><path
             id="path646"
             style="fill:#8b0000;fill-opacity:1;fill-rule:nonzero;stroke:none"
             d="m 0,0 c 0,-22.724 12.736,-41.144 28.447,-41.144 15.712,0 28.449,18.42 28.449,41.144 0,22.723 -12.737,41.143 -28.449,41.143 C 12.736,41.143 0,22.723 0,0" /></g><g
           transform="translate(787.3916,447.4808)"
           id="g648"><path
             id="path650"
             style="fill:#dae2f3;fill-opacity:1;fill-rule:nonzero;stroke:none"
             d="m 0,0 c 3.494,0.345 6.37,0.583 8.605,3.979 0.936,1.422 3.236,11.818 4.421,11.957 5.37,0.628 10.74,1.259 16.111,1.885 l -1.121,1.315 c 2.607,0.952 3.281,3.884 3.267,6.383 -0.038,6.892 -4.447,17.69 -12.385,17.963 C 15.269,43.607 11.799,42.069 8.594,40.361 2.755,37.252 -2.689,33.486 -7.99,29.517 c -0.649,-3.279 -1,-6.765 -1,-10.381 0,-19.197 9.851,-34.758 22.004,-34.758 6.87,0 13.001,4.977 17.036,12.769 C 23.401,-2.907 16.754,-2.962 10.106,-3.017 6.779,-3.044 2.177,-2.971 0,0" /></g><g
           transform="translate(800.4053,501.3734)"
           id="g652"><path
             id="path654"
             style="fill:#89a1b3;fill-opacity:1;fill-rule:nonzero;stroke:none"
             d="m 0,0 c -9.863,0 -18.209,-10.251 -21.004,-24.376 5.301,3.97 10.745,7.735 16.584,10.845 3.205,1.707 6.675,3.245 10.305,3.121 7.937,-0.274 12.346,-11.071 12.385,-17.964 0.013,-2.499 -0.661,-5.431 -3.268,-6.383 l 1.121,-1.314 c -5.371,-0.626 -10.74,-1.257 -16.11,-1.886 -1.186,-0.139 -3.486,-10.534 -4.421,-11.956 -2.236,-3.397 -5.112,-3.635 -8.606,-3.98 2.177,-2.97 6.78,-3.044 10.107,-3.016 6.647,0.055 13.295,0.109 19.943,0.164 3.103,5.991 4.967,13.643 4.967,21.988 C 22.003,-15.561 12.152,0 0,0" /></g><g
           transform="translate(788.6387,465.0218)"
           id="g656"><path
             id="path658"
             style="fill:#fcffff;fill-opacity:1;fill-rule:nonzero;stroke:none"
             d="m 0,0 h 29.011 c 0,0 2.943,28.17 -12.614,28.38 C 0.841,28.59 -4.205,11.352 0,0" /></g><g
           transform="translate(642.248,441.4935)"
           id="g660"><path
             id="path662"
             style="fill:#221c31;fill-opacity:1;fill-rule:nonzero;stroke:none"
             d="m 0,0 c 0,-6.378 -5.17,-11.549 -11.549,-11.549 -6.378,0 -11.548,5.171 -11.548,11.549 0,6.379 5.17,11.549 11.548,11.549 C -5.17,11.549 0,6.379 0,0" /></g><g
           transform="translate(634.4536,450.7698)"
           id="g664"><path
             id="path666"
             style="fill:#221c31;fill-opacity:1;fill-rule:nonzero;stroke:none"
             d="m 0,0 c 0,0 -13.097,3.906 -19.786,-3.974 -8.381,-9.873 0.626,-22.246 23.442,-14.231 z" /></g><g
           transform="translate(689.228,522.1912)"
           id="g668"><path
             id="path670"
             style="fill:none;stroke:#692b2d;stroke-width:1;stroke-linecap:butt;stroke-linejoin:miter;stroke-miterlimit:10;stroke-dasharray:none;stroke-opacity:1"
             d="m 0,0 c 17.055,9.378 32.951,7.756 32.951,7.756 0,0 4.949,-0.39 5.361,-5.749 0.413,-5.359 -5.333,-6.2 -5.333,-6.2" /></g><g
           transform="translate(578.2847,519.9583)"
           id="g672"><path
             id="path674"
             style="fill:none;stroke:#692b2d;stroke-width:1;stroke-linecap:butt;stroke-linejoin:miter;stroke-miterlimit:10;stroke-dasharray:none;stroke-opacity:1"
             d="M 0,0 C 0,0 -32.667,24.949 -59.996,18.222" /></g></g></g></g></svg>