<?xml version="1.0" encoding="UTF-8" standalone="no"?>
<svg
   xmlns:dc="http://purl.org/dc/elements/1.1/"
   xmlns:cc="http://creativecommons.org/ns#"
   xmlns:rdf="http://www.w3.org/1999/02/22-rdf-syntax-ns#"
   xmlns:svg="http://www.w3.org/2000/svg"
   xmlns="http://www.w3.org/2000/svg"
   viewBox="0 0 666.66669 666.66669"
   height="666.66669"
   width="666.66669"
   xml:space="preserve"
   id="svg2"
   version="1.1"><metadata
     id="metadata8"><rdf:RDF><cc:Work
         rdf:about=""><dc:format>image/svg+xml</dc:format><dc:type
           rdf:resource="http://purl.org/dc/dcmitype/StillImage" /></cc:Work></rdf:RDF></metadata><defs
     id="defs6"><clipPath
       id="clipPath20"
       clipPathUnits="userSpaceOnUse"><path
         id="path18"
         d="M 0,500 H 500 V 0 H 0 Z" /></clipPath><clipPath
       id="clipPath32"
       clipPathUnits="userSpaceOnUse"><path
         id="path30"
         d="m 170.003,347.832 c -7.075,-1.979 -12.179,-7.615 -17.179,-12.65 v 0 c -6.48,-6.521 -12.881,-13.119 -19.395,-19.605 v 0 C 120.546,302.745 107.5,290.078 94.602,277.262 v 0 C 87.917,270.62 81.251,263.958 74.596,257.286 v 0 -149.281 c 0,-19.6 15.831,-35.485 35.368,-35.485 v 0 h 142.477 c 0.679,0.682 1.356,1.364 2.035,2.044 v 0 c 12.885,12.904 25.63,25.944 38.415,38.948 v 0 c 6.321,6.429 12.673,12.826 19.125,19.125 v 0 c 6.361,6.21 13.137,11.961 19.57,18.095 v 0 c 5.339,5.093 10.16,10.786 12.202,18.026 v 0 c 2.327,8.247 1.213,17.059 0.861,25.482 v 0 c -0.718,17.138 2.446,34.165 -0.007,51.272 v 0 c -1.863,13.008 -6.761,25.547 -15.969,35.121 v 0 c -8.233,8.561 -19.532,14.56 -31.594,14.56 v 0 c -8.012,0 -16.07,-1.791 -23.176,-5.536 v 0 c -6.926,-3.65 -12.521,-9.266 -17.813,-14.931 v 0 c -0.47,4.548 -0.918,9.097 -1.333,13.65 v 0 c -0.279,3.044 -3.867,4.051 -6.433,3.961 v 0 c -9.706,-0.335 -19.418,-0.069 -29.125,-0.069 v 0 c 0.042,-0.94 0.083,-1.88 0.126,-2.82 v 0 h -2.946 c 0.043,-0.94 0.085,-1.88 0.126,-2.82 v 0 h -2.947 c 0.044,-0.939 0.086,-1.88 0.126,-2.819 v 0 h -2.944 c 0.044,-0.94 0.085,-1.879 0.125,-2.819 v 0 h -2.946 c 0.043,-0.941 0.084,-1.879 0.126,-2.82 v 0 h -2.944 c 0.042,-0.939 0.084,-1.88 0.126,-2.82 v 0 h -2.946 c 0.043,-0.939 0.085,-1.88 0.126,-2.819 v 0 h -2.946 c 0.043,-0.94 0.085,-1.879 0.126,-2.82 v 0 h -2.945 c 0.042,-0.94 0.084,-1.88 0.126,-2.82 v 0 c -1.833,-0.443 -0.873,5.082 -0.793,5.948 v 0 c 0.262,2.85 -0.041,5.717 0.248,8.565 v 0 c 0.285,2.801 1.2,5.734 0.271,8.511 v 0 c -1.237,3.698 -5.829,2.399 -8.723,2.31 v 0 c -6.013,-0.18 -12.028,0.043 -18.042,0.043 v 0 c 5.924,6.365 12.28,12.306 18.406,18.472 v 0 c 2.553,2.571 5.379,5.011 7.06,8.287 v 0 c 1.929,3.76 2.619,8.13 2.005,12.307 v 0 c -1.506,10.253 -11.726,17.232 -21.739,17.232 v 0 c -1.845,0 -3.683,-0.237 -5.458,-0.734" /></clipPath><linearGradient
       id="linearGradient46"
       spreadMethod="pad"
       gradientTransform="matrix(-237.60936,-234.47279,-234.47279,237.60936,365.35742,364.46484)"
       gradientUnits="userSpaceOnUse"
       y2="0"
       x2="1"
       y1="0"
       x1="0"><stop
         id="stop42"
         offset="0"
         style="stop-opacity:1;stop-color:#ffffff" /><stop
         id="stop44"
         offset="1"
         style="stop-opacity:0;stop-color:#ffffff" /></linearGradient><mask
       id="mask48"
       height="1"
       width="1"
       y="0"
       x="0"
       maskUnits="userSpaceOnUse"><g
         id="g58"><g
           id="g56"><g
             id="g54"><g
               id="g52"><path
                 id="path50"
                 style="fill:url(#linearGradient46);stroke:none"
                 d="M -32768,32767 H 32767 V -32768 H -32768 Z" /></g></g></g></g></mask><linearGradient
       id="linearGradient68"
       spreadMethod="pad"
       gradientTransform="matrix(-237.60936,-234.47279,-234.47279,237.60936,365.35742,364.46484)"
       gradientUnits="userSpaceOnUse"
       y2="0"
       x2="1"
       y1="0"
       x1="0"><stop
         id="stop64"
         offset="0"
         style="stop-opacity:1;stop-color:#000000" /><stop
         id="stop66"
         offset="1"
         style="stop-opacity:1;stop-color:#000000" /></linearGradient><clipPath
       id="clipPath78"
       clipPathUnits="userSpaceOnUse"><path
         id="path76"
         d="M 0,500 H 500 V 0 H 0 Z" /></clipPath></defs><g
     transform="matrix(1.3333333,0,0,-1.3333333,0,666.66667)"
     id="g10"><path
       id="path12"
       style="fill:#ffffff;fill-opacity:1;fill-rule:nonzero;stroke:none"
       d="M 0,0 H 500 V 500 H 0 Z" /><g
       id="g14"><g
         clip-path="url(#clipPath20)"
         id="g16"><g
           transform="translate(390.0361,72.5205)"
           id="g22"><path
             id="path24"
             style="fill:#0172b1;fill-opacity:1;fill-rule:nonzero;stroke:none"
             d="m 0,0 c 19.537,0 35.367,15.885 35.367,35.484 v 283.989 c 0,19.597 -15.83,35.486 -35.367,35.486 h -280.072 c -19.537,0 -35.367,-15.889 -35.367,-35.486 V 35.484 C -315.439,15.885 -299.609,0 -280.072,0 Z" /></g></g></g><g
       id="g26"><g
         clip-path="url(#clipPath32)"
         id="g28"><g
           id="g34"><g
             id="g36" /><g
             mask="url(#mask48)"
             id="g60"><g
               id="g62"><path
                 id="path70"
                 style="fill:url(#linearGradient68);stroke:none"
                 d="m 170.003,347.832 c -7.075,-1.979 -12.179,-7.615 -17.179,-12.65 v 0 c -6.48,-6.521 -12.881,-13.119 -19.395,-19.605 v 0 C 120.546,302.745 107.5,290.078 94.602,277.262 v 0 C 87.917,270.62 81.251,263.958 74.596,257.286 v 0 -149.281 c 0,-19.6 15.831,-35.485 35.368,-35.485 v 0 h 142.477 c 0.679,0.682 1.356,1.364 2.035,2.044 v 0 c 12.885,12.904 25.63,25.944 38.415,38.948 v 0 c 6.321,6.429 12.673,12.826 19.125,19.125 v 0 c 6.361,6.21 13.137,11.961 19.57,18.095 v 0 c 5.339,5.093 10.16,10.786 12.202,18.026 v 0 c 2.327,8.247 1.213,17.059 0.861,25.482 v 0 c -0.718,17.138 2.446,34.165 -0.007,51.272 v 0 c -1.863,13.008 -6.761,25.547 -15.969,35.121 v 0 c -8.233,8.561 -19.532,14.56 -31.594,14.56 v 0 c -8.012,0 -16.07,-1.791 -23.176,-5.536 v 0 c -6.926,-3.65 -12.521,-9.266 -17.813,-14.931 v 0 c -0.47,4.548 -0.918,9.097 -1.333,13.65 v 0 c -0.279,3.044 -3.867,4.051 -6.433,3.961 v 0 c -9.706,-0.335 -19.418,-0.069 -29.125,-0.069 v 0 c 0.042,-0.94 0.083,-1.88 0.126,-2.82 v 0 h -2.946 c 0.043,-0.94 0.085,-1.88 0.126,-2.82 v 0 h -2.947 c 0.044,-0.939 0.086,-1.88 0.126,-2.819 v 0 h -2.944 c 0.044,-0.94 0.085,-1.879 0.125,-2.819 v 0 h -2.946 c 0.043,-0.941 0.084,-1.879 0.126,-2.82 v 0 h -2.944 c 0.042,-0.939 0.084,-1.88 0.126,-2.82 v 0 h -2.946 c 0.043,-0.939 0.085,-1.88 0.126,-2.819 v 0 h -2.946 c 0.043,-0.94 0.085,-1.879 0.126,-2.82 v 0 h -2.945 c 0.042,-0.94 0.084,-1.88 0.126,-2.82 v 0 c -1.833,-0.443 -0.873,5.082 -0.793,5.948 v 0 c 0.262,2.85 -0.041,5.717 0.248,8.565 v 0 c 0.285,2.801 1.2,5.734 0.271,8.511 v 0 c -1.237,3.698 -5.829,2.399 -8.723,2.31 v 0 c -6.013,-0.18 -12.028,0.043 -18.042,0.043 v 0 c 5.924,6.365 12.28,12.306 18.406,18.472 v 0 c 2.553,2.571 5.379,5.011 7.06,8.287 v 0 c 1.929,3.76 2.619,8.13 2.005,12.307 v 0 c -1.506,10.253 -11.726,17.232 -21.739,17.232 v 0 c -1.845,0 -3.683,-0.237 -5.458,-0.734" /></g></g></g></g></g><g
       id="g72"><g
         clip-path="url(#clipPath78)"
         id="g74"><g
           transform="translate(176.1436,348.6152)"
           id="g80"><path
             id="path82"
             style="fill:#ffffff;fill-opacity:1;fill-rule:nonzero;stroke:none"
             d="m 0,0 c -13.023,0 -21.528,-8.77 -21.528,-20.198 0,-11.162 8.239,-20.202 20.998,-20.202 13.553,0 21.794,9.04 21.794,20.202 C 20.999,-8.77 13.023,0 0,0" /></g><path
           id="path84"
           style="fill:#ffffff;fill-opacity:1;fill-rule:nonzero;stroke:none"
           d="m 155.679,162.289 h 40.4 v 129.979 h -40.4 z" /><g
           transform="translate(343.5918,162.2891)"
           id="g86"><path
             id="path88"
             style="fill:#ffffff;fill-opacity:1;fill-rule:nonzero;stroke:none"
             d="m 0,0 v 76.818 c 0,38.273 -19.931,56.085 -46.513,56.085 -21.796,0 -34.823,-12.491 -40.136,-21 h -0.798 l -1.863,18.076 h -35.084 c 0.531,-11.699 1.063,-25.251 1.063,-41.465 V 0 h 40.4 v 74.956 c 0,3.723 0.269,7.445 1.33,10.102 2.926,7.44 9.569,15.151 20.733,15.151 14.619,0 20.469,-11.432 20.469,-28.176 l 0,-72.033 z" /></g></g></g></g></svg>